<svg xmlns="http://www.w3.org/2000/svg" width="680" height="500" viewBox="0 0 680 500"><style>.label{font:14px sans-serif;fill:#e5e7eb}.value{font:12px sans-serif;fill:#9ca3af}.axis{stroke:#374151}.series{fill:none;stroke-width:2}</style><rect width="100%" height="100%" fill="#111827"/><text x="40" y="20" class="label">CPU utilization (%)</text><text x="640" y="20" text-anchor="end" class="value">latest: 110.18</text><line x1="40" y1="55" x2="640" y2="55" class="axis"/><polyline points="40,26.6 65,55.0 90,25.9 115,34.9 140,27.1 165,31.5 190,23.6 215,41.6 240,10.0 265,53.5 290,29.9 315,32.3 340,23.6 365,33.4 390,26.3 415,36.5 440,30.3 465,32.0 490,28.8 515,34.2" stroke="#ef4444" class="series"/><text x="40" y="115" class="label">Throughput (M leases/s)</text><text x="640" y="115" text-anchor="end" class="value">latest: 16.24</text><line x1="40" y1="150" x2="640" y2="150" class="axis"/><polyline points="40,138.1 65,124.7 90,139.2 115,125.7 140,138.1 165,130.4 190,138.9 215,127.6 240,150.0 265,105.0 290,140.4 315,120.7 340,140.7 365,132.4 390,137.7 415,125.1 440,139.8 465,120.6 490,136.9 515,116.6" stroke="#22c55e" class="series"/><text x="40" y="210" class="label">RSS (KiB)</text><text x="640" y="210" text-anchor="end" class="value">latest: 695104.00</text><line x1="40" y1="245" x2="640" y2="245" class="axis"/><polyline points="40,245.0 65,217.3 90,245.0 115,225.2 140,245.0 165,221.6 190,245.0 215,214.1 240,244.9 265,200.0 290,245.0 315,223.9 340,245.0 365,206.5 390,244.9 415,223.6 440,245.0 465,222.2 490,245.0 515,209.9" stroke="#3b82f6" class="series"/><text x="40" y="305" class="label">Memory recovery drift (KiB)</text><text x="640" y="305" text-anchor="end" class="value">latest: 0.00</text><line x1="40" y1="340" x2="640" y2="340" class="axis"/><polyline points="40,340.0 65,340.0 90,340.0 115,340.0 140,340.0 165,340.0 190,340.0 215,340.0 240,340.0 265,340.0 290,340.0 315,340.0 340,340.0 365,340.0 390,340.0 415,340.0 440,340.0 465,340.0 490,340.0 515,340.0" stroke="#a855f7" class="series"/><text x="40" y="400" class="label">Context switches</text><text x="640" y="400" text-anchor="end" class="value">latest: 11983.00</text><line x1="40" y1="435" x2="640" y2="435" class="axis"/><polyline points="40,424.5 65,435.0 90,424.0 115,429.5 140,425.2 165,417.9 190,424.5 215,417.2 240,390.0 265,426.8 290,427.5 315,417.0 340,424.5 365,419.1 390,424.6 415,431.1 440,426.9 465,416.0 490,426.2 515,419.3" stroke="#f59e0b" class="series"/></svg>
