<svg xmlns="http://www.w3.org/2000/svg" width="680" height="500" viewBox="0 0 680 500"><style>.label{font:14px sans-serif;fill:#e5e7eb}.value{font:12px sans-serif;fill:#9ca3af}.axis{stroke:#374151}.series{fill:none;stroke-width:2}</style><rect width="100%" height="100%" fill="#111827"/><text x="40" y="20" class="label">CPU utilization (%)</text><text x="640" y="20" text-anchor="end" class="value">latest: 110.43</text><line x1="40" y1="55" x2="640" y2="55" class="axis"/><polyline points="40,10.0 65,48.9 90,30.5 115,41.3 140,30.9 165,44.9 190,31.3 215,37.6 240,31.4 265,37.7 290,13.2 315,38.8 340,30.6 365,55.0 390,34.4 415,37.2 440,28.3 465,45.2 490,31.3 515,38.6" stroke="#ef4444" class="series"/><text x="40" y="115" class="label">Throughput (M leases/s)</text><text x="640" y="115" text-anchor="end" class="value">latest: 14.14</text><line x1="40" y1="150" x2="640" y2="150" class="axis"/><polyline points="40,150.0 65,134.3 90,143.5 115,134.5 140,143.6 165,127.7 190,144.0 215,134.6 240,141.9 265,136.5 290,148.4 315,105.0 340,144.3 365,132.1 390,141.9 415,136.8 440,144.1 465,135.6 490,143.9 515,134.5" stroke="#22c55e" class="series"/><text x="40" y="210" class="label">RSS (KiB)</text><text x="640" y="210" text-anchor="end" class="value">latest: 765264.00</text><line x1="40" y1="245" x2="640" y2="245" class="axis"/><polyline points="40,245.0 65,218.8 90,245.0 115,208.5 140,245.0 165,207.1 190,245.0 215,213.9 240,245.0 265,218.6 290,245.0 315,219.7 340,244.9 365,210.3 390,245.0 415,211.3 440,245.0 465,209.0 490,245.0 515,200.0" stroke="#3b82f6" class="series"/><text x="40" y="305" class="label">Memory recovery drift (KiB)</text><text x="640" y="305" text-anchor="end" class="value">latest: 0.00</text><line x1="40" y1="340" x2="640" y2="340" class="axis"/><polyline points="40,340.0 65,340.0 90,340.0 115,340.0 140,340.0 165,340.0 190,340.0 215,340.0 240,340.0 265,340.0 290,340.0 315,340.0 340,340.0 365,340.0 390,340.0 415,340.0 440,340.0 465,340.0 490,340.0 515,340.0" stroke="#a855f7" class="series"/><text x="40" y="400" class="label">Context switches</text><text x="640" y="400" text-anchor="end" class="value">latest: 10012.00</text><line x1="40" y1="435" x2="640" y2="435" class="axis"/><polyline points="40,397.8 65,422.4 90,431.0 115,435.0 140,428.6 165,427.8 190,432.5 215,431.2 240,429.4 265,421.2 290,390.0 315,426.0 340,431.2 365,419.9 390,431.4 415,431.3 440,428.5 465,431.8 490,432.2 515,426.3" stroke="#f59e0b" class="series"/></svg>
