<svg xmlns="http://www.w3.org/2000/svg" width="680" height="500" viewBox="0 0 680 500"><style>.label{font:14px sans-serif;fill:#e5e7eb}.value{font:12px sans-serif;fill:#9ca3af}.axis{stroke:#374151}.series{fill:none;stroke-width:2}</style><rect width="100%" height="100%" fill="#111827"/><text x="40" y="20" class="label">CPU utilization (%)</text><text x="640" y="20" text-anchor="end" class="value">latest: 109.41</text><line x1="40" y1="55" x2="640" y2="55" class="axis"/><polyline points="40,15.6 65,38.1 90,13.8 115,44.6 140,19.7 165,46.9 190,18.9 215,41.2 240,20.9 265,31.0 290,19.4 315,34.3 340,10.0 365,37.3 390,17.2 415,48.1 440,13.1 465,55.0 490,19.8 515,37.0" stroke="#ef4444" class="series"/><text x="40" y="115" class="label">Throughput (M leases/s)</text><text x="640" y="115" text-anchor="end" class="value">latest: 14.70</text><line x1="40" y1="150" x2="640" y2="150" class="axis"/><polyline points="40,144.5 65,105.0 90,136.2 115,127.0 140,132.3 165,119.6 190,140.1 215,107.8 240,142.3 265,116.0 290,141.9 315,117.8 340,150.0 365,119.6 390,141.7 415,122.2 440,141.4 465,122.6 490,142.7 515,120.4" stroke="#22c55e" class="series"/><text x="40" y="210" class="label">RSS (KiB)</text><text x="640" y="210" text-anchor="end" class="value">latest: 634688.00</text><line x1="40" y1="245" x2="640" y2="245" class="axis"/><polyline points="40,244.9 65,231.7 90,244.9 115,208.7 140,245.0 165,216.3 190,245.0 215,225.3 240,244.9 265,210.7 290,245.0 315,225.3 340,245.0 365,222.6 390,245.0 415,202.0 440,245.0 465,200.0 490,245.0 515,225.7" stroke="#3b82f6" class="series"/><text x="40" y="305" class="label">Memory recovery drift (KiB)</text><text x="640" y="305" text-anchor="end" class="value">latest: 0.00</text><line x1="40" y1="340" x2="640" y2="340" class="axis"/><polyline points="40,340.0 65,340.0 90,340.0 115,340.0 140,340.0 165,340.0 190,340.0 215,340.0 240,340.0 265,340.0 290,340.0 315,340.0 340,340.0 365,340.0 390,340.0 415,340.0 440,340.0 465,340.0 490,340.0 515,340.0" stroke="#a855f7" class="series"/><text x="40" y="400" class="label">Context switches</text><text x="640" y="400" text-anchor="end" class="value">latest: 6057.00</text><line x1="40" y1="435" x2="640" y2="435" class="axis"/><polyline points="40,422.8 65,414.6 90,421.4 115,415.0 140,421.0 165,435.0 190,421.8 215,420.4 240,425.2 265,411.0 290,424.6 315,413.5 340,390.0 365,427.9 390,423.5 415,431.7 440,419.2 465,423.8 490,424.5 515,428.4" stroke="#f59e0b" class="series"/></svg>
