<svg xmlns="http://www.w3.org/2000/svg" width="680" height="500" viewBox="0 0 680 500"><style>.label{font:14px sans-serif;fill:#e5e7eb}.value{font:12px sans-serif;fill:#9ca3af}.axis{stroke:#374151}.series{fill:none;stroke-width:2}</style><rect width="100%" height="100%" fill="#111827"/><text x="40" y="20" class="label">CPU utilization (%)</text><text x="640" y="20" text-anchor="end" class="value">latest: 111.91</text><line x1="40" y1="55" x2="640" y2="55" class="axis"/><polyline points="40,26.3 65,39.6 90,28.9 115,35.3 140,10.0 165,55.0 190,26.3 215,37.3 240,28.7 265,36.2 290,27.5 315,40.2 340,23.1 365,37.1 390,19.3 415,32.8 440,21.5 465,44.4 490,22.9 515,34.8" stroke="#ef4444" class="series"/><text x="40" y="115" class="label">Throughput (M leases/s)</text><text x="640" y="115" text-anchor="end" class="value">latest: 12.87</text><line x1="40" y1="150" x2="640" y2="150" class="axis"/><polyline points="40,138.0 65,107.8 90,135.1 115,114.0 140,150.0 165,105.0 190,136.8 215,117.3 240,135.5 265,115.5 290,135.7 315,113.5 340,132.7 365,117.8 390,134.5 415,118.7 440,136.6 465,105.2 490,127.5 515,114.5" stroke="#22c55e" class="series"/><text x="40" y="210" class="label">RSS (KiB)</text><text x="640" y="210" text-anchor="end" class="value">latest: 710768.00</text><line x1="40" y1="245" x2="640" y2="245" class="axis"/><polyline points="40,245.0 65,200.8 90,243.6 115,203.2 140,244.7 165,203.5 190,244.8 215,200.0 240,244.9 265,216.1 290,244.9 315,204.8 340,244.7 365,208.9 390,244.7 415,210.5 440,244.7 465,234.7 490,243.3 515,204.3" stroke="#3b82f6" class="series"/><text x="40" y="305" class="label">Memory recovery drift (KiB)</text><text x="640" y="305" text-anchor="end" class="value">latest: 0.00</text><line x1="40" y1="340" x2="640" y2="340" class="axis"/><polyline points="40,340.0 65,340.0 90,340.0 115,340.0 140,340.0 165,340.0 190,340.0 215,340.0 240,340.0 265,340.0 290,340.0 315,340.0 340,340.0 365,340.0 390,340.0 415,340.0 440,340.0 465,340.0 490,340.0 515,340.0" stroke="#a855f7" class="series"/><text x="40" y="400" class="label">Context switches</text><text x="640" y="400" text-anchor="end" class="value">latest: 13276.00</text><line x1="40" y1="435" x2="640" y2="435" class="axis"/><polyline points="40,426.9 65,430.1 90,432.1 115,421.6 140,390.0 165,426.4 190,428.3 215,422.0 240,429.5 265,421.0 290,430.1 315,435.0 340,433.0 365,430.7 390,430.5 415,419.9 440,427.6 465,429.2 490,432.2 515,422.0" stroke="#f59e0b" class="series"/></svg>
