<svg xmlns="http://www.w3.org/2000/svg" width="680" height="500" viewBox="0 0 680 500"><style>.label{font:14px sans-serif;fill:#e5e7eb}.value{font:12px sans-serif;fill:#9ca3af}.axis{stroke:#374151}.series{fill:none;stroke-width:2}</style><rect width="100%" height="100%" fill="#111827"/><text x="40" y="20" class="label">CPU utilization (%)</text><text x="640" y="20" text-anchor="end" class="value">latest: 112.14</text><line x1="40" y1="55" x2="640" y2="55" class="axis"/><polyline points="40,26.3 65,34.9 90,26.5 115,39.8 140,10.0 165,38.5 190,21.0 215,55.0 240,25.8 265,38.3 290,25.7 315,49.4 340,24.6 365,43.9 390,24.2 415,44.1 440,24.2 465,41.8 490,24.8 515,35.1" stroke="#ef4444" class="series"/><text x="40" y="115" class="label">Throughput (M leases/s)</text><text x="640" y="115" text-anchor="end" class="value">latest: 10.97</text><line x1="40" y1="150" x2="640" y2="150" class="axis"/><polyline points="40,133.1 65,130.2 90,142.3 115,125.1 140,150.0 165,126.7 190,146.5 215,121.6 240,139.1 265,123.0 290,142.1 315,115.4 340,145.2 365,118.2 390,134.4 415,120.7 440,141.5 465,105.0 490,144.6 515,131.0" stroke="#22c55e" class="series"/><text x="40" y="210" class="label">RSS (KiB)</text><text x="640" y="210" text-anchor="end" class="value">latest: 713472.00</text><line x1="40" y1="245" x2="640" y2="245" class="axis"/><polyline points="40,245.0 65,205.2 90,244.9 115,210.1 140,244.9 165,201.0 190,244.9 215,204.6 240,244.9 265,208.7 290,244.9 315,200.0 340,245.0 365,205.4 390,244.9 415,201.5 440,245.0 465,200.9 490,244.9 515,207.4" stroke="#3b82f6" class="series"/><text x="40" y="305" class="label">Memory recovery drift (KiB)</text><text x="640" y="305" text-anchor="end" class="value">latest: 0.00</text><line x1="40" y1="340" x2="640" y2="340" class="axis"/><polyline points="40,340.0 65,340.0 90,340.0 115,340.0 140,340.0 165,340.0 190,340.0 215,340.0 240,340.0 265,340.0 290,340.0 315,340.0 340,340.0 365,340.0 390,340.0 415,340.0 440,340.0 465,340.0 490,340.0 515,340.0" stroke="#a855f7" class="series"/><text x="40" y="400" class="label">Context switches</text><text x="640" y="400" text-anchor="end" class="value">latest: 15036.00</text><line x1="40" y1="435" x2="640" y2="435" class="axis"/><polyline points="40,426.0 65,413.7 90,426.4 115,416.0 140,390.0 165,430.5 190,424.7 215,419.9 240,427.0 265,428.3 290,426.2 315,435.0 340,427.7 365,434.5 390,427.4 415,421.5 440,426.0 465,420.0 490,428.1 515,411.2" stroke="#f59e0b" class="series"/></svg>
